<svg xmlns="http://www.w3.org/2000/svg" width="750" height="420"  font-family="'Noto Sans KR', sans-serif" font-size="14" viewBox="0 0 750 420">
  <text x="375" y="28" text-anchor="middle" font-size="18" font-weight="700" fill="#212121">Ch01~02 코드의 4계층 배치도 (v0.2)</text>

  <!-- App 레이어 -->
  <rect x="30" y="50" width="690" height="70" rx="8" fill="#EA4335" opacity="0.1" stroke="#EA4335" stroke-width="2"/>
  <text x="50" y="72" font-size="14" font-weight="700" fill="#EA4335">App 레이어</text>

  <rect x="50" y="82" width="130" height="28" rx="4" fill="#EA4335" opacity="0.8"/>
  <text x="115" y="101" text-anchor="middle" font-size="11" fill="white" font-weight="600">main()</text>

  <rect x="195" y="82" width="200" height="28" rx="4" fill="#EA4335" opacity="0.8"/>
  <text x="295" y="101" text-anchor="middle" font-size="11" fill="white" font-weight="600">HAL_GPIO_EXTI_Callback()</text>

  <rect x="410" y="82" width="140" height="28" rx="4" fill="#EA4335" opacity="0.8"/>
  <text x="480" y="101" text-anchor="middle" font-size="11" fill="white" font-weight="600">while(1) 메인 루프</text>

  <!-- Service 레이어 (비어있음) -->
  <rect x="30" y="135" width="690" height="55" rx="8" fill="#FBBC04" opacity="0.1" stroke="#FBBC04" stroke-width="2" stroke-dasharray="6,3"/>
  <text x="50" y="157" font-size="14" font-weight="700" fill="#F57F17">Service 레이어</text>
  <text x="375" y="172" text-anchor="middle" font-size="13" fill="#999" font-style="italic">(아직 없음 — Ch10부터 등장)</text>

  <!-- Driver 레이어 -->
  <rect x="30" y="205" width="690" height="70" rx="8" fill="#34A853" opacity="0.1" stroke="#34A853" stroke-width="2"/>
  <text x="50" y="227" font-size="14" font-weight="700" fill="#34A853">Driver 레이어</text>

  <rect x="50" y="237" width="120" height="28" rx="4" fill="#34A853" opacity="0.8"/>
  <text x="110" y="256" text-anchor="middle" font-size="11" fill="white" font-weight="600">log_print()</text>

  <rect x="185" y="237" width="170" height="28" rx="4" fill="#34A853" opacity="0.8"/>
  <text x="270" y="256" text-anchor="middle" font-size="11" fill="white" font-weight="600">LOG_E/W/I/D 매크로</text>

  <rect x="370" y="237" width="140" height="28" rx="4" fill="#34A853" opacity="0.6" stroke="#34A853" stroke-dasharray="4,2"/>
  <text x="440" y="256" text-anchor="middle" font-size="11" fill="white" font-weight="600">gpio_driver (미분리)</text>

  <!-- HAL 레이어 -->
  <rect x="30" y="290" width="690" height="70" rx="8" fill="#1A73E8" opacity="0.1" stroke="#1A73E8" stroke-width="2"/>
  <text x="50" y="312" font-size="14" font-weight="700" fill="#1A73E8">HAL 레이어</text>

  <rect x="50" y="322" width="130" height="28" rx="4" fill="#1A73E8" opacity="0.8"/>
  <text x="115" y="341" text-anchor="middle" font-size="11" fill="white" font-weight="600">HAL_GPIO_Init/Write</text>

  <rect x="195" y="322" width="150" height="28" rx="4" fill="#1A73E8" opacity="0.8"/>
  <text x="270" y="341" text-anchor="middle" font-size="11" fill="white" font-weight="600">HAL_NVIC_SetPriority</text>

  <rect x="360" y="322" width="120" height="28" rx="4" fill="#1A73E8" opacity="0.8"/>
  <text x="420" y="341" text-anchor="middle" font-size="11" fill="white" font-weight="600">SystemClock_Config</text>

  <rect x="495" y="322" width="120" height="28" rx="4" fill="#1A73E8" opacity="0.8"/>
  <text x="555" y="341" text-anchor="middle" font-size="11" fill="white" font-weight="600">ITM_SendChar</text>

  <!-- 위반 표시 -->
  <line x1="295" y1="110" x2="420" y2="322" stroke="#EA4335" stroke-width="2" stroke-dasharray="5,3"/>
  <rect x="560" y="82" width="140" height="28" rx="4" fill="#FFF3F3" stroke="#EA4335" stroke-width="1.5"/>
  <text x="630" y="101" text-anchor="middle" font-size="11" fill="#EA4335" font-weight="600">&#x26A0; HAL 직접 호출</text>

  <!-- 범례 -->
  <rect x="30" y="380" width="690" height="30" rx="4" fill="#FFF8E1" stroke="#FFB300" stroke-width="1"/>
  <text x="375" y="400" text-anchor="middle" font-size="12" fill="#E65100">&#x26A0; EXTI Callback에서 HAL_GPIO_WritePin() 직접 호출 — 계층 건너뛰기 위반 (Ch04에서 해결 예정)</text>
</svg>
