<svg xmlns="http://www.w3.org/2000/svg" width="800" height="490" font-family="'Noto Sans KR', sans-serif" font-size="14" viewBox="0 0 800 490">
  <defs>
    <marker id="arr13" markerWidth="10" markerHeight="7" refX="10" refY="3.5" orient="auto">
      <polygon points="0 0, 10 3.5, 0 7" fill="#555"/>
    </marker>
  </defs>

  <text x="400" y="28" text-anchor="middle" font-size="18" font-weight="bold" fill="#1A1A2E">Ch13 아키텍처 위치 — GFX Service + UI Service (v1.3)</text>

  <!-- App Layer -->
  <rect x="50" y="45" width="700" height="70" rx="8" fill="#EA4335" opacity="0.12" stroke="#EA4335" stroke-width="2"/>
  <text x="80" y="67" font-size="11" fill="#EA4335" font-weight="bold">App Layer</text>
  <rect x="185" y="75" width="175" height="30" rx="5" fill="#FFCDD2" stroke="#EA4335"/>
  <text x="272" y="95" text-anchor="middle" font-size="11" fill="#C62828">main_app.c</text>
  <rect x="400" y="75" width="175" height="30" rx="5" fill="#FFCDD2" stroke="#EA4335"/>
  <text x="487" y="95" text-anchor="middle" font-size="11" fill="#C62828">clock_app.c</text>

  <line x1="400" y1="115" x2="400" y2="145" stroke="#555" stroke-width="1.5" marker-end="url(#arr13)"/>

  <!-- Service Layer (높이 확대) -->
  <rect x="50" y="150" width="700" height="90" rx="8" fill="#FBBC04" opacity="0.12" stroke="#FBBC04" stroke-width="2"/>
  <text x="80" y="172" font-size="11" fill="#E65100" font-weight="bold">Service Layer</text>

  <!-- Ch13 신규 강조 점선 박스 -->
  <rect x="60" y="178" width="420" height="55" rx="6" fill="none" stroke="#FF6F00" stroke-width="2" stroke-dasharray="8,4"/>
  <text x="270" y="174" text-anchor="middle" font-size="9" fill="#FF6F00">★ Ch13에서 추가</text>

  <rect x="70" y="185" width="195" height="40" rx="5" fill="#FFF3E0" stroke="#FBBC04" stroke-width="2"/>
  <text x="167" y="202" text-anchor="middle" font-size="12" font-weight="bold" fill="#E65100">ui_service ★NEW</text>
  <text x="167" y="215" text-anchor="middle" font-size="9" fill="#E65100">TIME/SENSOR/STOPWATCH + DISPLAY FSM</text>

  <rect x="280" y="185" width="190" height="40" rx="5" fill="#FFF3E0" stroke="#FBBC04" stroke-width="2"/>
  <text x="375" y="202" text-anchor="middle" font-size="12" font-weight="bold" fill="#E65100">gfx_service ★NEW</text>
  <text x="375" y="215" text-anchor="middle" font-size="9" fill="#E65100">도형/폰트 렌더링 추상화</text>

  <rect x="490" y="185" width="145" height="40" rx="5" fill="#FFF8E1" stroke="#FBBC04"/>
  <text x="562" y="202" text-anchor="middle" font-size="11" fill="#E65100">sensor_service</text>
  <text x="562" y="215" text-anchor="middle" font-size="9" fill="#E65100">Ch11 기존</text>

  <rect x="648" y="185" width="90" height="40" rx="5" fill="#FFF8E1" stroke="#FBBC04"/>
  <text x="693" y="202" text-anchor="middle" font-size="11" fill="#E65100">clock_service</text>
  <text x="693" y="215" text-anchor="middle" font-size="9" fill="#E65100">Ch09 기존</text>

  <line x1="400" y1="240" x2="400" y2="268" stroke="#555" stroke-width="1.5" marker-end="url(#arr13)"/>

  <!-- Driver Layer -->
  <rect x="50" y="273" width="700" height="75" rx="8" fill="#34A853" opacity="0.12" stroke="#34A853" stroke-width="2"/>
  <text x="80" y="295" font-size="11" fill="#1B5E20" font-weight="bold">Driver Layer</text>
  <rect x="65" y="303" width="165" height="35" rx="5" fill="#C8E6C9" stroke="#34A853"/>
  <text x="147" y="320" text-anchor="middle" font-size="11" fill="#1B5E20">ili9341_driver</text>
  <text x="147" y="333" text-anchor="middle" font-size="9" fill="#555">Ch12 기존</text>
  <rect x="245" y="303" width="150" height="35" rx="5" fill="#C8E6C9" stroke="#34A853"/>
  <text x="320" y="320" text-anchor="middle" font-size="11" fill="#1B5E20">spi_driver</text>
  <text x="320" y="333" text-anchor="middle" font-size="9" fill="#555">Ch12 기존</text>
  <rect x="410" y="303" width="150" height="35" rx="5" fill="#C8E6C9" stroke="#34A853"/>
  <text x="485" y="320" text-anchor="middle" font-size="11" fill="#1B5E20">sht31_driver</text>
  <text x="485" y="333" text-anchor="middle" font-size="9" fill="#555">Ch11 기존</text>
  <rect x="575" y="303" width="155" height="35" rx="5" fill="#C8E6C9" stroke="#34A853"/>
  <text x="652" y="320" text-anchor="middle" font-size="11" fill="#1B5E20">rtc_driver</text>
  <text x="652" y="333" text-anchor="middle" font-size="9" fill="#555">Ch09 기존</text>

  <line x1="400" y1="348" x2="400" y2="378" stroke="#555" stroke-width="1.5" marker-end="url(#arr13)"/>

  <!-- HAL Layer -->
  <rect x="50" y="383" width="700" height="55" rx="8" fill="#1A73E8" opacity="0.12" stroke="#1A73E8" stroke-width="2"/>
  <text x="80" y="405" font-size="11" fill="#1A73E8" font-weight="bold">HAL Layer</text>
  <rect x="70" y="411" width="100" height="22" rx="4" fill="#BBDEFB"/>
  <text x="120" y="426" text-anchor="middle" font-size="10" fill="#0D47A1">HAL_SPI</text>
  <rect x="185" y="411" width="100" height="22" rx="4" fill="#BBDEFB"/>
  <text x="235" y="426" text-anchor="middle" font-size="10" fill="#0D47A1">HAL_I2C</text>
  <rect x="300" y="411" width="100" height="22" rx="4" fill="#BBDEFB"/>
  <text x="350" y="426" text-anchor="middle" font-size="10" fill="#0D47A1">HAL_RTC</text>
  <rect x="415" y="411" width="100" height="22" rx="4" fill="#BBDEFB"/>
  <text x="465" y="426" text-anchor="middle" font-size="10" fill="#0D47A1">HAL_DMA</text>

  <!-- 버전 뱃지 -->
  <rect x="300" y="451" width="200" height="22" rx="11" fill="#1A73E8"/>
  <text x="400" y="466" text-anchor="middle" font-size="12" font-weight="bold" fill="white">v1.3 — Ch13 완성</text>
</svg>
