<svg xmlns="http://www.w3.org/2000/svg" width="800" height="530" font-family="'Noto Sans KR', sans-serif" font-size="14" viewBox="0 0 800 530">
  <defs>
    <marker id="arr16" markerWidth="10" markerHeight="7" refX="10" refY="3.5" orient="auto">
      <polygon points="0 0, 10 3.5, 0 7" fill="#555"/>
    </marker>
  </defs>

  <text x="400" y="28" text-anchor="middle" font-size="18" font-weight="bold" fill="#1A1A2E">Ch16 아키텍처 위치 — Protocol App + PC 대시보드</text>

  <!-- App Layer -->
  <rect x="50" y="45" width="700" height="70" rx="8" fill="#EA4335" opacity="0.12" stroke="#EA4335" stroke-width="2"/>
  <text x="80" y="67" font-size="11" fill="#EA4335" font-weight="bold">App Layer</text>
  <rect x="130" y="75" width="210" height="30" rx="5" fill="#FFCDD2" stroke="#EA4335"/>
  <text x="235" y="92" text-anchor="middle" font-size="11" fill="#C62828">cli_app.c</text>
  <text x="235" y="103" text-anchor="middle" font-size="9" fill="#C62828">CLI 명령 처리</text>
  <rect x="370" y="75" width="270" height="30" rx="5" fill="#FFCDD2" stroke="#EA4335" stroke-width="2"/>
  <text x="505" y="92" text-anchor="middle" font-size="12" font-weight="bold" fill="#C62828">protocol_app.c ★NEW Ch16</text>
  <text x="505" y="103" text-anchor="middle" font-size="9" fill="#C62828">PC 대시보드 프레임 ★ Ch16</text>

  <line x1="400" y1="115" x2="400" y2="145" stroke="#555" stroke-width="1.5" marker-end="url(#arr16)"/>

  <!-- Service Layer -->
  <rect x="50" y="150" width="700" height="75" rx="8" fill="#FBBC04" opacity="0.12" stroke="#FBBC04" stroke-width="2"/>
  <text x="80" y="172" font-size="11" fill="#E65100" font-weight="bold">Service Layer</text>
  <rect x="65" y="182" width="155" height="35" rx="5" fill="#FFF8E1" stroke="#FBBC04"/>
  <text x="142" y="200" text-anchor="middle" font-size="11" fill="#E65100">clock_service</text>
  <text x="142" y="213" text-anchor="middle" font-size="9" fill="#E65100">Ch09 기존</text>
  <rect x="232" y="182" width="155" height="35" rx="5" fill="#FFF8E1" stroke="#FBBC04"/>
  <text x="309" y="200" text-anchor="middle" font-size="11" fill="#E65100">sensor_service</text>
  <text x="309" y="213" text-anchor="middle" font-size="9" fill="#E65100">Ch11 기존</text>
  <rect x="400" y="182" width="145" height="35" rx="5" fill="#FFF8E1" stroke="#FBBC04"/>
  <text x="472" y="200" text-anchor="middle" font-size="11" fill="#E65100">gfx_service</text>
  <text x="472" y="213" text-anchor="middle" font-size="9" fill="#E65100">Ch13 기존</text>
  <rect x="558" y="182" width="175" height="35" rx="5" fill="#FFF8E1" stroke="#FBBC04"/>
  <text x="645" y="200" text-anchor="middle" font-size="11" fill="#E65100">ui_service</text>
  <text x="645" y="213" text-anchor="middle" font-size="9" fill="#E65100">Ch13 기존</text>

  <line x1="400" y1="225" x2="400" y2="255" stroke="#555" stroke-width="1.5" marker-end="url(#arr16)"/>

  <!-- Driver Layer -->
  <rect x="50" y="260" width="700" height="75" rx="8" fill="#34A853" opacity="0.12" stroke="#34A853" stroke-width="2"/>
  <text x="80" y="282" font-size="11" fill="#1B5E20" font-weight="bold">Driver Layer</text>
  <rect x="60" y="291" width="105" height="35" rx="5" fill="#C8E6C9" stroke="#34A853"/>
  <text x="112" y="308" text-anchor="middle" font-size="10" fill="#1B5E20">uart_driver</text>
  <text x="112" y="321" text-anchor="middle" font-size="9" fill="#555">Ch06</text>
  <rect x="175" y="291" width="105" height="35" rx="5" fill="#C8E6C9" stroke="#34A853"/>
  <text x="227" y="308" text-anchor="middle" font-size="10" fill="#1B5E20">tim_driver</text>
  <text x="227" y="321" text-anchor="middle" font-size="9" fill="#555">Ch08</text>
  <rect x="290" y="291" width="105" height="35" rx="5" fill="#C8E6C9" stroke="#34A853"/>
  <text x="342" y="308" text-anchor="middle" font-size="10" fill="#1B5E20">rtc_driver</text>
  <text x="342" y="321" text-anchor="middle" font-size="9" fill="#555">Ch09</text>
  <rect x="405" y="291" width="105" height="35" rx="5" fill="#C8E6C9" stroke="#34A853"/>
  <text x="457" y="308" text-anchor="middle" font-size="10" fill="#1B5E20">stepper_driver</text>
  <text x="457" y="321" text-anchor="middle" font-size="9" fill="#555">Ch10</text>
  <rect x="520" y="291" width="105" height="35" rx="5" fill="#C8E6C9" stroke="#34A853"/>
  <text x="572" y="308" text-anchor="middle" font-size="10" fill="#1B5E20">sht31_driver</text>
  <text x="572" y="321" text-anchor="middle" font-size="9" fill="#555">Ch11</text>
  <rect x="635" y="291" width="105" height="35" rx="5" fill="#C8E6C9" stroke="#34A853"/>
  <text x="687" y="308" text-anchor="middle" font-size="10" fill="#1B5E20">ili9341_driver</text>
  <text x="687" y="321" text-anchor="middle" font-size="9" fill="#555">Ch12</text>

  <line x1="400" y1="335" x2="400" y2="365" stroke="#555" stroke-width="1.5" marker-end="url(#arr16)"/>

  <!-- HAL Layer -->
  <rect x="50" y="370" width="700" height="55" rx="8" fill="#1A73E8" opacity="0.12" stroke="#1A73E8" stroke-width="2"/>
  <text x="80" y="392" font-size="11" fill="#1A73E8" font-weight="bold">HAL Layer</text>
  <rect x="70" y="398" width="130" height="22" rx="4" fill="#90CAF9" stroke="#1A73E8"/>
  <text x="135" y="413" text-anchor="middle" font-size="10" font-weight="bold" fill="#0D47A1">HAL_UART</text>
  <rect x="215" y="398" width="110" height="22" rx="4" fill="#BBDEFB"/>
  <text x="270" y="413" text-anchor="middle" font-size="10" fill="#0D47A1">HAL_SPI</text>
  <rect x="340" y="398" width="110" height="22" rx="4" fill="#BBDEFB"/>
  <text x="395" y="413" text-anchor="middle" font-size="10" fill="#0D47A1">HAL_I2C</text>

  <line x1="400" y1="425" x2="400" y2="452" stroke="#9C27B0" stroke-width="1.5" marker-end="url(#arr16)"/>

  <!-- PC (Python) 섹션 -->
  <rect x="50" y="457" width="700" height="30" rx="8" fill="#9C27B0" opacity="0.12" stroke="#9C27B0" stroke-width="1.5"/>
  <text x="400" y="476" text-anchor="middle" font-size="11" fill="#6A1B9A">PC (Python) — pyserial 수신 스레드 + PyQt5 실시간 대시보드</text>

  <!-- 버전 뱃지 -->
  <rect x="265" y="496" width="270" height="22" rx="11" fill="#1A73E8"/>
  <text x="400" y="511" text-anchor="middle" font-size="12" font-weight="bold" fill="white">Ch16 — PC 대시보드 연동</text>
</svg>
