<svg xmlns="http://www.w3.org/2000/svg" width="800" height="500" font-family="'Noto Sans KR', sans-serif" font-size="14" viewBox="0 0 800 500">
  <defs>
    <marker id="arr19" markerWidth="10" markerHeight="7" refX="10" refY="3.5" orient="auto">
      <polygon points="0 0, 10 3.5, 0 7" fill="#555"/>
    </marker>
  </defs>

  <text x="400" y="28" text-anchor="middle" font-size="18" font-weight="bold" fill="#1A1A2E">Ch19 — 전체 레이어드 아키텍처 최종 현황 (v2.2)</text>

  <!-- App Layer -->
  <rect x="50" y="45" width="700" height="85" rx="8" fill="#EA4335" opacity="0.12" stroke="#EA4335" stroke-width="2"/>
  <text x="80" y="67" font-size="11" fill="#EA4335" font-weight="bold">App Layer</text>
  <rect x="65" y="75" width="190" height="30" rx="5" fill="#FFCDD2" stroke="#EA4335"/>
  <text x="160" y="95" text-anchor="middle" font-size="11" fill="#C62828">cli_app.c (명령어 처리)</text>
  <rect x="270" y="75" width="190" height="30" rx="5" fill="#FFCDD2" stroke="#EA4335"/>
  <text x="365" y="95" text-anchor="middle" font-size="11" fill="#C62828">protocol_app.c (PC 프레임)</text>
  <rect x="475" y="75" width="190" height="30" rx="5" fill="#FFCDD2" stroke="#EA4335"/>
  <text x="570" y="95" text-anchor="middle" font-size="11" fill="#C62828">app_main.c (시스템 루프)</text>
  <!-- 리팩토링 검증 텍스트 -->
  <text x="400" y="122" text-anchor="middle" font-size="9" fill="#C62828">리팩토링 검증: 레이어 경계 준수 확인</text>

  <line x1="400" y1="130" x2="400" y2="155" stroke="#555" stroke-width="1.5" marker-end="url(#arr19)"/>

  <!-- Service Layer -->
  <rect x="50" y="160" width="700" height="75" rx="8" fill="#FBBC04" opacity="0.12" stroke="#FBBC04" stroke-width="2"/>
  <text x="80" y="182" font-size="11" fill="#E65100" font-weight="bold">Service Layer</text>
  <rect x="65" y="192" width="155" height="35" rx="5" fill="#FFF8E1" stroke="#FBBC04"/>
  <text x="142" y="214" text-anchor="middle" font-size="11" fill="#E65100">clock_service.c</text>
  <rect x="232" y="192" width="155" height="35" rx="5" fill="#FFF8E1" stroke="#FBBC04"/>
  <text x="309" y="214" text-anchor="middle" font-size="11" fill="#E65100">sensor_service.c</text>
  <rect x="400" y="192" width="155" height="35" rx="5" fill="#FFF8E1" stroke="#FBBC04"/>
  <text x="477" y="214" text-anchor="middle" font-size="11" fill="#E65100">ui_service.c</text>
  <rect x="568" y="192" width="162" height="35" rx="5" fill="#FFF8E1" stroke="#FBBC04"/>
  <text x="649" y="214" text-anchor="middle" font-size="11" fill="#E65100">gfx_service.c</text>

  <line x1="400" y1="235" x2="400" y2="263" stroke="#555" stroke-width="1.5" marker-end="url(#arr19)"/>

  <!-- Driver Layer -->
  <rect x="50" y="268" width="700" height="90" rx="8" fill="#34A853" opacity="0.12" stroke="#34A853" stroke-width="2"/>
  <text x="80" y="290" font-size="11" fill="#1B5E20" font-weight="bold">Driver Layer</text>
  <!-- 1열 -->
  <rect x="60" y="298" width="90" height="50" rx="5" fill="#C8E6C9" stroke="#34A853"/>
  <text x="105" y="317" text-anchor="middle" font-size="10" fill="#1B5E20">uart_driver.c</text>
  <rect x="160" y="298" width="90" height="50" rx="5" fill="#C8E6C9" stroke="#34A853"/>
  <text x="205" y="317" text-anchor="middle" font-size="10" fill="#1B5E20">tim_driver.c</text>
  <rect x="260" y="298" width="90" height="50" rx="5" fill="#C8E6C9" stroke="#34A853"/>
  <text x="305" y="317" text-anchor="middle" font-size="10" fill="#1B5E20">rtc_driver.c</text>
  <rect x="360" y="298" width="90" height="50" rx="5" fill="#C8E6C9" stroke="#34A853"/>
  <text x="405" y="317" text-anchor="middle" font-size="10" fill="#1B5E20">i2c_driver.c</text>
  <rect x="460" y="298" width="90" height="50" rx="5" fill="#C8E6C9" stroke="#34A853"/>
  <text x="505" y="317" text-anchor="middle" font-size="10" fill="#1B5E20">spi_driver.c</text>
  <rect x="560" y="298" width="95" height="50" rx="5" fill="#C8E6C9" stroke="#34A853"/>
  <text x="607" y="317" text-anchor="middle" font-size="10" fill="#1B5E20">stepper_driver.c</text>
  <rect x="665" y="298" width="75" height="50" rx="5" fill="#C8E6C9" stroke="#34A853"/>
  <text x="702" y="317" text-anchor="middle" font-size="10" fill="#1B5E20">ili9341_driver.c</text>

  <line x1="400" y1="358" x2="400" y2="385" stroke="#555" stroke-width="1.5" marker-end="url(#arr19)"/>

  <!-- HAL Layer -->
  <rect x="50" y="390" width="700" height="55" rx="8" fill="#1A73E8" opacity="0.12" stroke="#1A73E8" stroke-width="2"/>
  <text x="80" y="412" font-size="11" fill="#1A73E8" font-weight="bold">HAL Layer</text>
  <text x="400" y="428" text-anchor="middle" font-size="12" fill="#0D47A1">STM32 HAL Library · DMA Controller · NVIC</text>

  <!-- 버전 뱃지 -->
  <rect x="295" y="458" width="210" height="22" rx="11" fill="#1A73E8"/>
  <text x="400" y="473" text-anchor="middle" font-size="12" font-weight="bold" fill="white">v2.2 — Ch19 완성</text>
</svg>
